# xmcd CD database file
#
# Track frame offsets:
#	150
#	2172
#	16984
#	32822
#	47731
#	61104
#	73979
#	85591
#	103634
#	114687
#	127507
#	141142
#	153222
#	165232
#	177154
#	189134
#
# Disc length: 2725 seconds
#
# Revision: 3
# Processed by: cddbd v1.5PL3 Copyright (c) Steve Scherf et al.
# Submitted via: jetAudio 5
#
DISCID=bc0aa310
DTITLE=Various Artist - Livin' Lovin' Losin' - Songs of The Louvin Brothers
DYEAR=1900
DGENRE=
TTITLE0=Intro To Charlie And Ira
TTITLE1=Cash On The Barrelhead
TTITLE2=My Baby's Gone
TTITLE3=How's The World Treating You
TTITLE4=I Can't Keep You In Love With Me
TTITLE5=Must You Throw Dirt In My Face
TTITLE6=If I Could Only Win Your Love
TTITLE7=When I Stop Dreaming
TTITLE8=I Wish You Knew
TTITLE9=The New Partner Waltz
TTITLE10=Are You Teasing Me
TTITLE11=I Don't Believe You've Met My Baby
TTITLE12=You're Running Wild
TTITLE13=The Angels Rejoiced
TTITLE14=Let Us Travel, Travel On
TTITLE15=Keep Your Eyes on Jesus
EXTD=Better Format For Saving In Filenames-
EXTT0=
EXTT1=
EXTT2=
EXTT3=
EXTT4=
EXTT5=
EXTT6=
EXTT7=
EXTT8=
EXTT9=
EXTT10=
EXTT11=
EXTT12=
EXTT13=
EXTT14=
EXTT15=
PLAYORDER=
